<?xml version="1.0" encoding="utf-8"?>
<!-- Generator: Adobe Illustrator 27.5.0, SVG Export Plug-In . SVG Version: 6.00 Build 0)  -->
<svg version="1.1" xmlns="http://www.w3.org/2000/svg" xmlns:xlink="http://www.w3.org/1999/xlink"
	viewBox="63 839 306 286" xml:space="preserve">
<g id="Graphic_Elements">
	<g>
		<g>
			<g>
				
					<path style="fill:none;stroke:#6D6D6D;stroke-width:1.7943;stroke-linecap:round;stroke-linejoin:round;stroke-miterlimit:10;" d="
					M138.033,1105.589c-19.603-6.514-35.274-18.784-42.696-38.551c-6.358-16.932-3.494-36.321-5.875-54.008
					c-2.11-15.675-7.265-31.247-18.749-42.452"/>
				
					<path style="fill:#6D6D6D;stroke:#6D6D6D;stroke-width:1.7943;stroke-linecap:round;stroke-linejoin:round;stroke-miterlimit:10;" d="
					M87.49,1001.339c7.245-1.34,15.096,1.255,20.115,6.648c1.377,1.479,2.597,3.292,2.614,5.313c0.005,0.555-0.087,1.121-0.349,1.61
					c-0.793,1.477-2.779,1.764-4.453,1.66c-4.214-0.263-8.33-1.913-11.559-4.633c-3.229-2.721-5.553-6.497-6.527-10.606"/>
				
					<path style="fill:#6D6D6D;stroke:#6D6D6D;stroke-width:1.7943;stroke-linecap:round;stroke-linejoin:round;stroke-miterlimit:10;" d="
					M96.626,1033.03c-2.983-2.594-5.453-5.814-6.22-9.767c-0.025-0.13-0.047-0.271,0.011-0.39c0.069-0.14,0.228-0.207,0.378-0.251
					c3.008-0.88,7.45,0.527,10.08,1.958c3.067,1.669,5.727,4.701,5.661,8.193c-0.01,0.546-0.091,1.104-0.355,1.582
					c-0.449,0.815-1.366,1.277-2.28,1.451C101.26,1036.308,98.655,1034.794,96.626,1033.03z"/>
				
					<path style="fill:#6D6D6D;stroke:#6D6D6D;stroke-width:1.7943;stroke-linecap:round;stroke-linejoin:round;stroke-miterlimit:10;" d="
					M120.33,1093.538c-3.19-0.966-7.017-2.054-9.579-4.284c4.667-3.233,8.999-6.228,14.917-6.363c1.602-0.036,3.24,0.109,4.714,0.74
					c1.474,0.631,2.772,1.8,3.276,3.322c0.644,1.945-0.145,4.186-1.647,5.579c-1.503,1.393-3.601,2.013-5.65,2.053
					S122.291,1094.132,120.33,1093.538z"/>
				
					<path style="fill:#6D6D6D;stroke:#6D6D6D;stroke-width:1.7943;stroke-linecap:round;stroke-linejoin:round;stroke-miterlimit:10;" d="
					M91.981,1050.367c-0.012-0.069-0.004-0.111,0.028-0.123c2.671-0.959,4.762-1.475,7.678-1.408
					c4.291,0.099,8.88,0.429,12.273,3.057c1.241,0.961,2.288,2.247,2.684,3.766c0.396,1.519,0.048,3.28-1.106,4.344
					c-0.605,0.557-1.381,0.894-2.167,1.134c-3.781,1.156-7.982,0.229-11.377-1.798c-2.01-1.2-3.832-2.768-5.385-4.517
					C94.314,1054.491,92.103,1051.069,91.981,1050.367z"/>
				
					<path style="fill:#6D6D6D;stroke:#6D6D6D;stroke-width:1.7943;stroke-linecap:round;stroke-linejoin:round;stroke-miterlimit:10;" d="
					M97.679,1071.741c0.821-1.249,2.292-1.889,3.714-2.349c2.727-0.883,5.608-1.353,8.469-1.172c1.607,0.102,3.268,0.438,4.537,1.43
					c1.268,0.992,2.021,2.78,1.413,4.271c-0.401,0.982-1.319,1.687-2.321,2.037c-1.002,0.35-2.085,0.385-3.145,0.339
					c-4.552-0.199-9.029-1.868-12.599-4.698"/>
				
					<path style="fill:#6D6D6D;stroke:#6D6D6D;stroke-width:1.7943;stroke-linecap:round;stroke-linejoin:round;stroke-miterlimit:10;" d="
					M120.976,1112.164c-0.603-2.327-0.894-4.768-0.81-7.171c0.042-1.197,0.223-2.347,0.459-3.518
					c0.068-0.337,0.904-2.967,1.002-2.865c3.578,3.743,6.936,7.392,8.954,12.269c0.716,1.731,1.288,3.61,0.977,5.457
					c-0.311,1.847-1.743,3.619-3.61,3.759c-1.424,0.107-2.765-0.725-3.762-1.747
					C122.547,1116.665,121.565,1114.438,120.976,1112.164z"/>
				
					<path style="fill:#6D6D6D;stroke:#6D6D6D;stroke-width:1.7943;stroke-linecap:round;stroke-linejoin:round;stroke-miterlimit:10;" d="
					M93.297,1060.393c-0.165,7.117-1.49,14.464-5.578,20.293c-1.003,1.43-2.217,2.793-3.82,3.484
					c-1.604,0.691-3.668,0.549-4.862-0.725c-0.862-0.92-1.138-2.244-1.194-3.503c-0.19-4.24,1.687-8.302,3.939-11.898
					c1.292-2.063,2.74-4.059,4.586-5.645c1.846-1.586,4.128-2.746,6.555-2.923L93.297,1060.393z"/>
				
					<path style="fill:#6D6D6D;stroke:#6D6D6D;stroke-width:1.7943;stroke-linecap:round;stroke-linejoin:round;stroke-miterlimit:10;" d="
					M82.865,1054.73c-1.625,1.633-3.581,3.108-5.864,3.417c-2.283,0.31-4.896-0.91-5.493-3.135
					c-0.533-1.983,0.629-4.045,2.088-5.489c3.535-3.496,7.859-6.001,12.481-7.85c0.459-0.184,4.502-1.345,4.467-1.727
					C91.041,1045.099,86.265,1051.313,82.865,1054.73z"/>
				
					<path style="fill:#6D6D6D;stroke:#6D6D6D;stroke-width:1.7943;stroke-linecap:round;stroke-linejoin:round;stroke-miterlimit:10;" d="
					M87.457,1026.806c-0.816,2.072-1.887,4.072-3.409,5.697c-1.522,1.625-3.528,2.857-5.73,3.18
					c-1.386,0.203-2.897,0.011-3.997-0.855c-1.544-1.216-1.909-3.498-1.362-5.387c1.372-4.738,5.764-8.147,9.85-10.501
					c0.851-0.49,7.071-3.59,6.709-4.611c0.567,1.574-0.123,4.547-0.371,6.186C88.82,1022.666,88.254,1024.781,87.457,1026.806z"/>
				
					<path style="fill:#6D6D6D;stroke:#6D6D6D;stroke-width:1.7943;stroke-linecap:round;stroke-linejoin:round;stroke-miterlimit:10;" d="
					M83.335,990.663c1.544,5.539,0.812,11.677-1.994,16.697c-0.863,1.545-1.975,3.039-3.556,3.834
					c-1.581,0.795-3.717,0.698-4.9-0.618c-0.837-0.931-1.057-2.276-0.957-3.524c0.272-3.381,2.534-6.225,4.698-8.837
					c2.16-2.608,4.32-5.215,6.48-7.823L83.335,990.663z"/>
				
					<path style="fill:#6D6D6D;stroke:#6D6D6D;stroke-width:1.7943;stroke-linecap:round;stroke-linejoin:round;stroke-miterlimit:10;" d="
					M141.029,1109.979c-2.508-1.316-5.107-3.105-6.323-5.674c2.75-0.422,5.336-0.623,8.032-1.402
					c2.514-0.726,5.025-1.583,7.637-1.729c2.612-0.145,5.41,0.53,7.196,2.443c0.914,0.979,1.526,2.307,1.391,3.639
					c-0.773,7.624-12.766,5.266-17.035,3.177C141.63,1110.288,141.33,1110.137,141.029,1109.979z"/>
				
					<path style="fill:#6D6D6D;stroke:#6D6D6D;stroke-width:1.7943;stroke-linecap:round;stroke-linejoin:round;stroke-miterlimit:10;" d="
					M102.567,1080.794c0.274,2.728,1.451,5.271,2.576,7.771c1.125,2.5,2.232,5.088,2.354,7.828c0.121,2.739-0.948,5.698-3.305,7.097
					c-0.585,0.347-1.246,0.592-1.926,0.593c-4.239,0.009-4.98-5.901-4.984-8.975c-0.003-2.27,0.127-4.556,0.675-6.767
					c0.711-2.864,2.189-5.627,4.565-7.378"/>
				
					<path style="fill:#6D6D6D;stroke:#6D6D6D;stroke-width:1.7943;stroke-linecap:round;stroke-linejoin:round;stroke-miterlimit:10;" d="
					M91.036,1036.332c0.617,1.216,1.569,2.261,2.722,2.989"/>
				
					<path style="fill:#6D6D6D;stroke:#6D6D6D;stroke-width:1.7943;stroke-linecap:round;stroke-linejoin:round;stroke-miterlimit:10;" d="
					M111.288,1090.911c0.572,1.761,1.144,3.522,1.716,5.283"/>
				
					<path style="fill:#6D6D6D;stroke:#6D6D6D;stroke-width:1.7943;stroke-linecap:round;stroke-linejoin:round;stroke-miterlimit:10;" d="
					M93.723,1039.082c1.547-0.232,3.136-0.462,4.662-0.119c0.215,0.048,0.441,0.116,0.581,0.286
					c0.155,0.188,0.167,0.452,0.156,0.695c-0.086,1.959-1.082,3.323-2.413,4.627c-0.141,0.138-0.296,0.283-0.491,0.307
					c-0.297,0.036-0.544-0.216-0.723-0.456c-1.076-1.444-1.313-3.196-1.888-4.85"/>
				
					<path style="fill:#6D6D6D;stroke:#6D6D6D;stroke-width:1.7943;stroke-linecap:round;stroke-linejoin:round;stroke-miterlimit:10;" d="
					M113.208,1096.097c2.002,1.237,3.279,3.565,3.248,5.918c-0.002,0.185-0.016,0.382-0.126,0.531
					c-0.132,0.18-0.369,0.245-0.588,0.287c-1.943,0.374-4.036-0.115-5.613-1.31c0.256-2.146,1.413-4.171,3.133-5.481"/>
				
					<path style="fill:#6D6D6D;stroke:#6D6D6D;stroke-width:1.7943;stroke-linecap:round;stroke-linejoin:round;stroke-miterlimit:10;" d="
					M131.904,1099.704c-1.475,0.528-3.015,0.871-4.575,1.015"/>
				
					<path style="fill:#6D6D6D;stroke:#6D6D6D;stroke-width:1.7943;stroke-linecap:round;stroke-linejoin:round;stroke-miterlimit:10;" d="
					M132.015,1099.724c0.331-1.815,1.495-3.351,2.623-4.81c0.106-0.137,0.233-0.286,0.406-0.299
					c0.112-0.008,0.219,0.044,0.318,0.098c2.17,1.191,3.252,4.052,2.413,6.381c-1.808-0.355-3.599-0.799-5.364-1.328
					L132.015,1099.724z"/>
			</g>
			<g>
				
					<path style="fill:none;stroke:#6D6D6D;stroke-width:1.7943;stroke-linecap:round;stroke-linejoin:round;stroke-miterlimit:10;" d="
					M70.713,993.152c11.484-11.205,16.639-26.777,18.749-42.452c2.381-17.687-0.483-37.076,5.875-54.008
					c7.422-19.767,23.093-32.037,42.696-38.551"/>
				
					<path style="fill:#6D6D6D;stroke:#6D6D6D;stroke-width:1.7943;stroke-linecap:round;stroke-linejoin:round;stroke-miterlimit:10;" d="
					M87.49,962.391c7.245,1.34,15.096-1.255,20.115-6.648c1.377-1.479,2.597-3.292,2.614-5.313c0.005-0.555-0.087-1.121-0.349-1.61
					c-0.793-1.477-2.779-1.764-4.453-1.66c-4.214,0.263-8.33,1.913-11.559,4.633c-3.229,2.721-5.553,6.497-6.527,10.606"/>
				
					<path style="fill:#6D6D6D;stroke:#6D6D6D;stroke-width:1.7943;stroke-linecap:round;stroke-linejoin:round;stroke-miterlimit:10;" d="
					M96.626,930.7c-2.983,2.594-5.453,5.814-6.22,9.767c-0.025,0.13-0.047,0.271,0.011,0.39c0.069,0.14,0.228,0.207,0.378,0.251
					c3.008,0.88,7.45-0.527,10.08-1.958c3.067-1.669,5.727-4.701,5.661-8.193c-0.01-0.546-0.091-1.104-0.355-1.582
					c-0.449-0.815-1.366-1.277-2.28-1.451C101.26,927.422,98.655,928.936,96.626,930.7z"/>
				
					<path style="fill:#6D6D6D;stroke:#6D6D6D;stroke-width:1.7943;stroke-linecap:round;stroke-linejoin:round;stroke-miterlimit:10;" d="
					M120.33,870.192c-3.19,0.966-7.017,2.054-9.579,4.284c4.667,3.233,8.999,6.228,14.917,6.362c1.602,0.037,3.24-0.109,4.714-0.74
					c1.474-0.631,2.772-1.8,3.276-3.322c0.644-1.945-0.145-4.186-1.647-5.579c-1.503-1.393-3.601-2.013-5.65-2.053
					S122.291,869.598,120.33,870.192z"/>
				
					<path style="fill:#6D6D6D;stroke:#6D6D6D;stroke-width:1.7943;stroke-linecap:round;stroke-linejoin:round;stroke-miterlimit:10;" d="
					M91.981,913.363c-0.012,0.068-0.004,0.111,0.028,0.122c2.671,0.959,4.762,1.475,7.678,1.408
					c4.291-0.099,8.88-0.429,12.273-3.057c1.241-0.961,2.288-2.247,2.684-3.766c0.396-1.519,0.048-3.28-1.106-4.344
					c-0.605-0.557-1.381-0.894-2.167-1.134c-3.781-1.156-7.982-0.229-11.377,1.797c-2.01,1.2-3.832,2.768-5.385,4.517
					C94.314,909.239,92.103,912.661,91.981,913.363z"/>
				
					<path style="fill:#6D6D6D;stroke:#6D6D6D;stroke-width:1.7943;stroke-linecap:round;stroke-linejoin:round;stroke-miterlimit:10;" d="
					M97.679,891.989c0.821,1.249,2.292,1.889,3.714,2.349c2.727,0.883,5.608,1.353,8.469,1.172c1.607-0.102,3.268-0.438,4.537-1.43
					c1.268-0.992,2.021-2.78,1.413-4.271c-0.401-0.982-1.319-1.687-2.321-2.037c-1.002-0.35-2.085-0.385-3.145-0.339
					c-4.552,0.198-9.029,1.868-12.599,4.698"/>
				
					<path style="fill:#6D6D6D;stroke:#6D6D6D;stroke-width:1.7943;stroke-linecap:round;stroke-linejoin:round;stroke-miterlimit:10;" d="
					M120.976,851.565c-0.603,2.327-0.894,4.768-0.81,7.171c0.042,1.197,0.223,2.347,0.459,3.518
					c0.068,0.337,0.904,2.967,1.002,2.865c3.578-3.743,6.936-7.392,8.954-12.269c0.716-1.73,1.288-3.61,0.977-5.456
					c-0.311-1.847-1.743-3.619-3.61-3.759c-1.424-0.107-2.765,0.725-3.762,1.747C122.547,847.065,121.565,849.292,120.976,851.565z"
					/>
				
					<path style="fill:#6D6D6D;stroke:#6D6D6D;stroke-width:1.7943;stroke-linecap:round;stroke-linejoin:round;stroke-miterlimit:10;" d="
					M93.297,903.337c-0.165-7.117-1.49-14.464-5.578-20.293c-1.003-1.43-2.217-2.793-3.82-3.484
					c-1.604-0.691-3.668-0.549-4.862,0.725c-0.862,0.92-1.138,2.244-1.194,3.503c-0.19,4.239,1.687,8.302,3.939,11.898
					c1.292,2.062,2.74,4.059,4.586,5.645c1.846,1.586,4.128,2.746,6.555,2.923L93.297,903.337z"/>
				
					<path style="fill:#6D6D6D;stroke:#6D6D6D;stroke-width:1.7943;stroke-linecap:round;stroke-linejoin:round;stroke-miterlimit:10;" d="
					M82.865,909c-1.625-1.633-3.581-3.108-5.864-3.417c-2.283-0.31-4.896,0.91-5.493,3.135c-0.533,1.983,0.629,4.045,2.088,5.489
					c3.535,3.496,7.859,6.001,12.481,7.85c0.459,0.184,4.502,1.345,4.467,1.727C91.041,918.63,86.265,912.417,82.865,909z"/>
				
					<path style="fill:#6D6D6D;stroke:#6D6D6D;stroke-width:1.7943;stroke-linecap:round;stroke-linejoin:round;stroke-miterlimit:10;" d="
					M87.457,936.924c-0.816-2.072-1.887-4.072-3.409-5.697c-1.522-1.625-3.528-2.857-5.73-3.18
					c-1.386-0.203-2.897-0.011-3.997,0.855c-1.544,1.216-1.909,3.498-1.362,5.387c1.372,4.738,5.764,8.147,9.85,10.501
					c0.851,0.49,7.071,3.59,6.709,4.611c0.567-1.574-0.123-4.547-0.371-6.186C88.82,941.063,88.254,938.949,87.457,936.924z"/>
				
					<path style="fill:#6D6D6D;stroke:#6D6D6D;stroke-width:1.7943;stroke-linecap:round;stroke-linejoin:round;stroke-miterlimit:10;" d="
					M83.335,973.067c1.544-5.539,0.812-11.677-1.994-16.697c-0.863-1.545-1.975-3.039-3.556-3.834
					c-1.581-0.795-3.717-0.698-4.9,0.618c-0.837,0.931-1.057,2.276-0.957,3.524c0.272,3.381,2.534,6.225,4.698,8.837
					c2.16,2.608,4.32,5.216,6.48,7.823L83.335,973.067z"/>
				
					<path style="fill:#6D6D6D;stroke:#6D6D6D;stroke-width:1.7943;stroke-linecap:round;stroke-linejoin:round;stroke-miterlimit:10;" d="
					M141.029,853.75c-2.508,1.316-5.107,3.105-6.323,5.674c2.75,0.422,5.336,0.623,8.032,1.402c2.514,0.726,5.025,1.583,7.637,1.729
					c2.612,0.145,5.41-0.53,7.196-2.443c0.914-0.979,1.526-2.307,1.391-3.639c-0.773-7.624-12.766-5.266-17.035-3.177
					C141.63,853.441,141.33,853.592,141.029,853.75z"/>
				
					<path style="fill:#6D6D6D;stroke:#6D6D6D;stroke-width:1.7943;stroke-linecap:round;stroke-linejoin:round;stroke-miterlimit:10;" d="
					M102.567,882.935c0.274-2.728,1.451-5.271,2.576-7.771c1.125-2.5,2.232-5.088,2.354-7.827c0.121-2.739-0.948-5.698-3.305-7.097
					c-0.585-0.347-1.246-0.592-1.926-0.593c-4.239-0.009-4.98,5.901-4.984,8.975c-0.003,2.27,0.127,4.556,0.675,6.767
					c0.711,2.864,2.189,5.627,4.565,7.378"/>
				
					<path style="fill:#6D6D6D;stroke:#6D6D6D;stroke-width:1.7943;stroke-linecap:round;stroke-linejoin:round;stroke-miterlimit:10;" d="
					M91.036,927.398c0.617-1.216,1.569-2.261,2.722-2.989"/>
				
					<path style="fill:#6D6D6D;stroke:#6D6D6D;stroke-width:1.7943;stroke-linecap:round;stroke-linejoin:round;stroke-miterlimit:10;" d="
					M111.288,872.818c0.572-1.761,1.144-3.522,1.716-5.283"/>
				
					<path style="fill:#6D6D6D;stroke:#6D6D6D;stroke-width:1.7943;stroke-linecap:round;stroke-linejoin:round;stroke-miterlimit:10;" d="
					M93.723,924.648c1.547,0.232,3.136,0.462,4.662,0.119c0.215-0.048,0.441-0.117,0.581-0.286c0.155-0.188,0.167-0.452,0.156-0.695
					c-0.086-1.959-1.082-3.323-2.413-4.627c-0.141-0.138-0.296-0.283-0.491-0.307c-0.297-0.037-0.544,0.216-0.723,0.456
					c-1.076,1.444-1.313,3.196-1.888,4.85"/>
				
					<path style="fill:#6D6D6D;stroke:#6D6D6D;stroke-width:1.7943;stroke-linecap:round;stroke-linejoin:round;stroke-miterlimit:10;" d="
					M113.208,867.633c2.002-1.237,3.279-3.565,3.248-5.918c-0.002-0.185-0.016-0.382-0.126-0.531
					c-0.132-0.18-0.369-0.245-0.588-0.287c-1.943-0.373-4.036,0.115-5.613,1.31c0.256,2.146,1.413,4.171,3.133,5.481"/>
				
					<path style="fill:#6D6D6D;stroke:#6D6D6D;stroke-width:1.7943;stroke-linecap:round;stroke-linejoin:round;stroke-miterlimit:10;" d="
					M131.904,864.025c-1.475-0.528-3.015-0.871-4.575-1.015"/>
				
					<path style="fill:#6D6D6D;stroke:#6D6D6D;stroke-width:1.7943;stroke-linecap:round;stroke-linejoin:round;stroke-miterlimit:10;" d="
					M132.015,864.006c0.331,1.815,1.495,3.351,2.623,4.81c0.106,0.137,0.233,0.286,0.406,0.299c0.112,0.008,0.219-0.044,0.318-0.098
					c2.17-1.191,3.252-4.052,2.413-6.381c-1.808,0.355-3.599,0.799-5.364,1.328L132.015,864.006z"/>
			</g>
		</g>
		<g>
			<g>
				
					<path style="fill:none;stroke:#6D6D6D;stroke-width:1.7943;stroke-linecap:round;stroke-linejoin:round;stroke-miterlimit:10;" d="
					M293.152,858.141c19.603,6.514,35.274,18.784,42.696,38.551c6.358,16.932,3.494,36.321,5.875,54.008
					c2.11,15.675,7.265,31.247,18.749,42.452"/>
				
					<path style="fill:#6D6D6D;stroke:#6D6D6D;stroke-width:1.7943;stroke-linecap:round;stroke-linejoin:round;stroke-miterlimit:10;" d="
					M343.696,962.391c-7.245,1.34-15.096-1.255-20.115-6.648c-1.377-1.479-2.597-3.292-2.614-5.313
					c-0.005-0.555,0.087-1.121,0.349-1.61c0.793-1.477,2.779-1.764,4.453-1.66c4.214,0.263,8.331,1.913,11.56,4.633
					c3.229,2.721,5.553,6.497,6.527,10.606"/>
				
					<path style="fill:#6D6D6D;stroke:#6D6D6D;stroke-width:1.7943;stroke-linecap:round;stroke-linejoin:round;stroke-miterlimit:10;" d="
					M334.559,930.7c2.983,2.594,5.453,5.814,6.22,9.767c0.025,0.13,0.047,0.271-0.011,0.39c-0.069,0.14-0.228,0.207-0.378,0.251
					c-3.008,0.88-7.45-0.527-10.08-1.958c-3.067-1.669-5.727-4.701-5.661-8.193c0.01-0.546,0.091-1.104,0.355-1.582
					c0.449-0.815,1.366-1.277,2.28-1.451C329.925,927.422,332.53,928.936,334.559,930.7z"/>
				
					<path style="fill:#6D6D6D;stroke:#6D6D6D;stroke-width:1.7943;stroke-linecap:round;stroke-linejoin:round;stroke-miterlimit:10;" d="
					M310.855,870.192c3.19,0.966,7.017,2.054,9.579,4.284c-4.667,3.233-8.999,6.228-14.917,6.362
					c-1.602,0.037-3.24-0.109-4.714-0.74c-1.474-0.631-2.772-1.8-3.276-3.322c-0.644-1.945,0.145-4.186,1.647-5.579
					c1.503-1.393,3.601-2.013,5.65-2.053C306.873,869.105,308.894,869.598,310.855,870.192z"/>
				
					<path style="fill:#6D6D6D;stroke:#6D6D6D;stroke-width:1.7943;stroke-linecap:round;stroke-linejoin:round;stroke-miterlimit:10;" d="
					M339.204,913.363c0.012,0.068,0.004,0.111-0.028,0.122c-2.671,0.959-4.762,1.475-7.678,1.408
					c-4.291-0.099-8.88-0.429-12.273-3.057c-1.241-0.961-2.288-2.247-2.684-3.766c-0.396-1.519-0.048-3.28,1.106-4.344
					c0.605-0.557,1.381-0.894,2.167-1.134c3.781-1.156,7.982-0.229,11.377,1.797c2.01,1.2,3.832,2.768,5.385,4.517
					C336.871,909.239,339.082,912.661,339.204,913.363z"/>
				
					<path style="fill:#6D6D6D;stroke:#6D6D6D;stroke-width:1.7943;stroke-linecap:round;stroke-linejoin:round;stroke-miterlimit:10;" d="
					M333.506,891.989c-0.821,1.249-2.292,1.889-3.714,2.349c-2.727,0.883-5.608,1.353-8.469,1.172
					c-1.607-0.102-3.268-0.438-4.537-1.43s-2.021-2.78-1.413-4.271c0.401-0.982,1.319-1.687,2.321-2.037
					c1.002-0.35,2.085-0.385,3.145-0.339c4.552,0.198,9.029,1.868,12.599,4.698"/>
				
					<path style="fill:#6D6D6D;stroke:#6D6D6D;stroke-width:1.7943;stroke-linecap:round;stroke-linejoin:round;stroke-miterlimit:10;" d="
					M310.209,851.565c0.603,2.327,0.894,4.768,0.81,7.171c-0.042,1.197-0.223,2.347-0.459,3.518
					c-0.068,0.337-0.904,2.967-1.002,2.865c-3.578-3.743-6.936-7.392-8.954-12.269c-0.716-1.73-1.288-3.61-0.977-5.456
					s1.743-3.619,3.61-3.759c1.424-0.107,2.765,0.725,3.762,1.747C308.638,847.065,309.62,849.292,310.209,851.565z"/>
				
					<path style="fill:#6D6D6D;stroke:#6D6D6D;stroke-width:1.7943;stroke-linecap:round;stroke-linejoin:round;stroke-miterlimit:10;" d="
					M337.888,903.337c0.165-7.117,1.49-14.464,5.578-20.293c1.003-1.43,2.217-2.793,3.82-3.484c1.604-0.691,3.668-0.549,4.862,0.725
					c0.862,0.92,1.138,2.244,1.194,3.503c0.19,4.239-1.687,8.302-3.939,11.898c-1.292,2.062-2.74,4.059-4.586,5.645
					c-1.846,1.586-4.128,2.746-6.555,2.923L337.888,903.337z"/>
				
					<path style="fill:#6D6D6D;stroke:#6D6D6D;stroke-width:1.7943;stroke-linecap:round;stroke-linejoin:round;stroke-miterlimit:10;" d="
					M348.32,909c1.625-1.633,3.581-3.108,5.864-3.417c2.283-0.31,4.896,0.91,5.493,3.135c0.533,1.983-0.628,4.045-2.088,5.489
					c-3.535,3.496-7.859,6.001-12.481,7.85c-0.459,0.184-4.502,1.345-4.467,1.727C340.144,918.63,344.92,912.417,348.32,909z"/>
				
					<path style="fill:#6D6D6D;stroke:#6D6D6D;stroke-width:1.7943;stroke-linecap:round;stroke-linejoin:round;stroke-miterlimit:10;" d="
					M343.728,936.924c0.815-2.072,1.887-4.072,3.409-5.697c1.522-1.625,3.527-2.857,5.73-3.18c1.386-0.203,2.897-0.011,3.997,0.855
					c1.544,1.216,1.909,3.498,1.362,5.387c-1.371,4.738-5.764,8.147-9.849,10.501c-0.851,0.49-7.071,3.59-6.709,4.611
					c-0.567-1.574,0.123-4.547,0.371-6.186C342.365,941.063,342.931,938.949,343.728,936.924z"/>
				
					<path style="fill:#6D6D6D;stroke:#6D6D6D;stroke-width:1.7943;stroke-linecap:round;stroke-linejoin:round;stroke-miterlimit:10;" d="
					M347.85,973.067c-1.544-5.539-0.811-11.677,1.994-16.697c0.863-1.545,1.975-3.039,3.556-3.834
					c1.581-0.795,3.717-0.698,4.9,0.618c0.837,0.931,1.057,2.276,0.957,3.524c-0.272,3.381-2.534,6.225-4.698,8.837
					c-2.16,2.608-4.32,5.216-6.48,7.823L347.85,973.067z"/>
				
					<path style="fill:#6D6D6D;stroke:#6D6D6D;stroke-width:1.7943;stroke-linecap:round;stroke-linejoin:round;stroke-miterlimit:10;" d="
					M290.156,853.75c2.508,1.316,5.107,3.105,6.323,5.674c-2.75,0.422-5.336,0.623-8.032,1.402
					c-2.514,0.726-5.025,1.583-7.637,1.729c-2.612,0.145-5.41-0.53-7.196-2.443c-0.914-0.979-1.526-2.307-1.391-3.639
					c0.773-7.624,12.766-5.266,17.035-3.177C289.555,853.441,289.855,853.592,290.156,853.75z"/>
				
					<path style="fill:#6D6D6D;stroke:#6D6D6D;stroke-width:1.7943;stroke-linecap:round;stroke-linejoin:round;stroke-miterlimit:10;" d="
					M328.618,882.935c-0.275-2.728-1.451-5.271-2.576-7.771c-1.125-2.5-2.232-5.088-2.354-7.827
					c-0.122-2.739,0.947-5.698,3.305-7.097c0.585-0.347,1.246-0.592,1.926-0.593c4.239-0.009,4.981,5.901,4.984,8.975
					c0.003,2.27-0.127,4.556-0.675,6.767c-0.711,2.864-2.189,5.627-4.565,7.378"/>
				
					<path style="fill:#6D6D6D;stroke:#6D6D6D;stroke-width:1.7943;stroke-linecap:round;stroke-linejoin:round;stroke-miterlimit:10;" d="
					M340.149,927.398c-0.617-1.216-1.569-2.261-2.722-2.989"/>
				
					<path style="fill:#6D6D6D;stroke:#6D6D6D;stroke-width:1.7943;stroke-linecap:round;stroke-linejoin:round;stroke-miterlimit:10;" d="
					M319.897,872.818c-0.572-1.761-1.144-3.522-1.716-5.283"/>
				
					<path style="fill:#6D6D6D;stroke:#6D6D6D;stroke-width:1.7943;stroke-linecap:round;stroke-linejoin:round;stroke-miterlimit:10;" d="
					M337.462,924.648c-1.547,0.232-3.136,0.462-4.662,0.119c-0.215-0.048-0.441-0.117-0.581-0.286
					c-0.155-0.188-0.166-0.452-0.156-0.695c0.086-1.959,1.082-3.323,2.413-4.627c0.141-0.138,0.296-0.283,0.491-0.307
					c0.297-0.037,0.544,0.216,0.723,0.456c1.076,1.444,1.313,3.196,1.888,4.85"/>
				
					<path style="fill:#6D6D6D;stroke:#6D6D6D;stroke-width:1.7943;stroke-linecap:round;stroke-linejoin:round;stroke-miterlimit:10;" d="
					M317.977,867.633c-2.001-1.237-3.279-3.565-3.248-5.918c0.002-0.185,0.017-0.382,0.126-0.531
					c0.132-0.18,0.369-0.245,0.588-0.287c1.943-0.373,4.036,0.115,5.613,1.31c-0.256,2.146-1.413,4.171-3.133,5.481"/>
				
					<path style="fill:#6D6D6D;stroke:#6D6D6D;stroke-width:1.7943;stroke-linecap:round;stroke-linejoin:round;stroke-miterlimit:10;" d="
					M299.281,864.025c1.475-0.528,3.015-0.871,4.575-1.015"/>
				
					<path style="fill:#6D6D6D;stroke:#6D6D6D;stroke-width:1.7943;stroke-linecap:round;stroke-linejoin:round;stroke-miterlimit:10;" d="
					M299.17,864.006c-0.331,1.815-1.494,3.351-2.623,4.81c-0.106,0.137-0.233,0.286-0.406,0.299
					c-0.112,0.008-0.219-0.044-0.318-0.098c-2.17-1.191-3.252-4.052-2.413-6.381c1.808,0.355,3.599,0.799,5.364,1.328
					L299.17,864.006z"/>
			</g>
			<g>
				
					<path style="fill:none;stroke:#6D6D6D;stroke-width:1.7943;stroke-linecap:round;stroke-linejoin:round;stroke-miterlimit:10;" d="
					M360.472,970.578c-11.484,11.205-16.639,26.777-18.749,42.452c-2.381,17.687,0.483,37.076-5.875,54.008
					c-7.422,19.767-23.093,32.037-42.696,38.551"/>
				
					<path style="fill:#6D6D6D;stroke:#6D6D6D;stroke-width:1.7943;stroke-linecap:round;stroke-linejoin:round;stroke-miterlimit:10;" d="
					M343.696,1001.339c-7.245-1.34-15.096,1.255-20.115,6.648c-1.377,1.479-2.597,3.292-2.614,5.313
					c-0.005,0.555,0.087,1.121,0.349,1.61c0.793,1.477,2.779,1.764,4.453,1.66c4.214-0.263,8.331-1.913,11.56-4.633
					c3.229-2.721,5.553-6.497,6.527-10.606"/>
				
					<path style="fill:#6D6D6D;stroke:#6D6D6D;stroke-width:1.7943;stroke-linecap:round;stroke-linejoin:round;stroke-miterlimit:10;" d="
					M334.559,1033.03c2.983-2.594,5.453-5.814,6.22-9.767c0.025-0.13,0.047-0.271-0.011-0.39c-0.069-0.14-0.228-0.207-0.378-0.251
					c-3.008-0.88-7.45,0.527-10.08,1.958c-3.067,1.669-5.727,4.701-5.661,8.193c0.01,0.546,0.091,1.104,0.355,1.582
					c0.449,0.815,1.366,1.277,2.28,1.451C329.925,1036.308,332.53,1034.794,334.559,1033.03z"/>
				
					<path style="fill:#6D6D6D;stroke:#6D6D6D;stroke-width:1.7943;stroke-linecap:round;stroke-linejoin:round;stroke-miterlimit:10;" d="
					M310.855,1093.538c3.19-0.966,7.017-2.054,9.579-4.284c-4.667-3.233-8.999-6.228-14.917-6.363
					c-1.602-0.036-3.24,0.109-4.714,0.74c-1.474,0.631-2.772,1.8-3.276,3.322c-0.644,1.945,0.145,4.186,1.647,5.579
					c1.503,1.393,3.601,2.013,5.65,2.053C306.873,1094.625,308.894,1094.132,310.855,1093.538z"/>
				
					<path style="fill:#6D6D6D;stroke:#6D6D6D;stroke-width:1.7943;stroke-linecap:round;stroke-linejoin:round;stroke-miterlimit:10;" d="
					M339.204,1050.367c0.012-0.069,0.004-0.111-0.028-0.123c-2.671-0.959-4.762-1.475-7.678-1.408
					c-4.291,0.099-8.88,0.429-12.273,3.057c-1.241,0.961-2.288,2.247-2.684,3.766c-0.396,1.519-0.048,3.28,1.106,4.344
					c0.605,0.557,1.381,0.894,2.167,1.134c3.781,1.156,7.982,0.229,11.377-1.798c2.01-1.2,3.832-2.768,5.385-4.517
					C336.871,1054.491,339.082,1051.069,339.204,1050.367z"/>
				
					<path style="fill:#6D6D6D;stroke:#6D6D6D;stroke-width:1.7943;stroke-linecap:round;stroke-linejoin:round;stroke-miterlimit:10;" d="
					M333.506,1071.741c-0.821-1.249-2.292-1.889-3.714-2.349c-2.727-0.883-5.608-1.353-8.469-1.172
					c-1.607,0.102-3.268,0.438-4.537,1.43c-1.268,0.992-2.021,2.78-1.413,4.271c0.401,0.982,1.319,1.687,2.321,2.037
					c1.002,0.35,2.085,0.385,3.145,0.339c4.552-0.199,9.029-1.868,12.599-4.698"/>
				
					<path style="fill:#6D6D6D;stroke:#6D6D6D;stroke-width:1.7943;stroke-linecap:round;stroke-linejoin:round;stroke-miterlimit:10;" d="
					M310.209,1112.164c0.603-2.327,0.894-4.768,0.81-7.171c-0.042-1.197-0.223-2.347-0.459-3.518
					c-0.068-0.337-0.904-2.967-1.002-2.865c-3.578,3.743-6.936,7.392-8.954,12.269c-0.716,1.731-1.288,3.61-0.977,5.457
					s1.743,3.619,3.61,3.759c1.424,0.107,2.765-0.725,3.762-1.747C308.638,1116.665,309.62,1114.438,310.209,1112.164z"/>
				
					<path style="fill:#6D6D6D;stroke:#6D6D6D;stroke-width:1.7943;stroke-linecap:round;stroke-linejoin:round;stroke-miterlimit:10;" d="
					M337.888,1060.393c0.165,7.117,1.49,14.464,5.578,20.293c1.003,1.43,2.217,2.793,3.82,3.484
					c1.604,0.691,3.668,0.549,4.862-0.725c0.862-0.92,1.138-2.244,1.194-3.503c0.19-4.24-1.687-8.302-3.939-11.898
					c-1.292-2.063-2.74-4.059-4.586-5.645c-1.846-1.586-4.128-2.746-6.555-2.923L337.888,1060.393z"/>
				
					<path style="fill:#6D6D6D;stroke:#6D6D6D;stroke-width:1.7943;stroke-linecap:round;stroke-linejoin:round;stroke-miterlimit:10;" d="
					M348.32,1054.73c1.625,1.633,3.581,3.108,5.864,3.417c2.283,0.31,4.896-0.91,5.493-3.135c0.533-1.983-0.628-4.045-2.088-5.489
					c-3.535-3.496-7.859-6.001-12.481-7.85c-0.459-0.184-4.502-1.345-4.467-1.727C340.144,1045.099,344.92,1051.313,348.32,1054.73z
					"/>
				
					<path style="fill:#6D6D6D;stroke:#6D6D6D;stroke-width:1.7943;stroke-linecap:round;stroke-linejoin:round;stroke-miterlimit:10;" d="
					M343.728,1026.806c0.815,2.072,1.887,4.072,3.409,5.697c1.522,1.625,3.527,2.857,5.73,3.18c1.386,0.203,2.897,0.011,3.997-0.855
					c1.544-1.216,1.909-3.498,1.362-5.387c-1.371-4.738-5.764-8.147-9.849-10.501c-0.851-0.49-7.071-3.59-6.709-4.611
					c-0.567,1.574,0.123,4.547,0.371,6.186C342.365,1022.666,342.931,1024.781,343.728,1026.806z"/>
				
					<path style="fill:#6D6D6D;stroke:#6D6D6D;stroke-width:1.7943;stroke-linecap:round;stroke-linejoin:round;stroke-miterlimit:10;" d="
					M347.85,990.663c-1.544,5.539-0.811,11.677,1.994,16.697c0.863,1.545,1.975,3.039,3.556,3.834
					c1.581,0.795,3.717,0.698,4.9-0.618c0.837-0.931,1.057-2.276,0.957-3.524c-0.272-3.381-2.534-6.225-4.698-8.837
					c-2.16-2.608-4.32-5.215-6.48-7.823L347.85,990.663z"/>
				
					<path style="fill:#6D6D6D;stroke:#6D6D6D;stroke-width:1.7943;stroke-linecap:round;stroke-linejoin:round;stroke-miterlimit:10;" d="
					M290.156,1109.979c2.508-1.316,5.107-3.105,6.323-5.674c-2.75-0.422-5.336-0.623-8.032-1.402
					c-2.514-0.726-5.025-1.583-7.637-1.729c-2.612-0.145-5.41,0.53-7.196,2.443c-0.914,0.979-1.526,2.307-1.391,3.639
					c0.773,7.624,12.766,5.266,17.035,3.177C289.555,1110.288,289.855,1110.137,290.156,1109.979z"/>
				
					<path style="fill:#6D6D6D;stroke:#6D6D6D;stroke-width:1.7943;stroke-linecap:round;stroke-linejoin:round;stroke-miterlimit:10;" d="
					M328.618,1080.794c-0.275,2.728-1.451,5.271-2.576,7.771c-1.125,2.5-2.232,5.088-2.354,7.828
					c-0.122,2.739,0.947,5.698,3.305,7.097c0.585,0.347,1.246,0.592,1.926,0.593c4.239,0.009,4.981-5.901,4.984-8.975
					c0.003-2.27-0.127-4.556-0.675-6.767c-0.711-2.864-2.189-5.627-4.565-7.378"/>
				
					<path style="fill:#6D6D6D;stroke:#6D6D6D;stroke-width:1.7943;stroke-linecap:round;stroke-linejoin:round;stroke-miterlimit:10;" d="
					M340.149,1036.332c-0.617,1.216-1.569,2.261-2.722,2.989"/>
				
					<path style="fill:#6D6D6D;stroke:#6D6D6D;stroke-width:1.7943;stroke-linecap:round;stroke-linejoin:round;stroke-miterlimit:10;" d="
					M319.897,1090.911c-0.572,1.761-1.144,3.522-1.716,5.283"/>
				
					<path style="fill:#6D6D6D;stroke:#6D6D6D;stroke-width:1.7943;stroke-linecap:round;stroke-linejoin:round;stroke-miterlimit:10;" d="
					M337.462,1039.082c-1.547-0.232-3.136-0.462-4.662-0.119c-0.215,0.048-0.441,0.116-0.581,0.286
					c-0.155,0.188-0.166,0.452-0.156,0.695c0.086,1.959,1.082,3.323,2.413,4.627c0.141,0.138,0.296,0.283,0.491,0.307
					c0.297,0.036,0.544-0.216,0.723-0.456c1.076-1.444,1.313-3.196,1.888-4.85"/>
				
					<path style="fill:#6D6D6D;stroke:#6D6D6D;stroke-width:1.7943;stroke-linecap:round;stroke-linejoin:round;stroke-miterlimit:10;" d="
					M317.977,1096.097c-2.001,1.237-3.279,3.565-3.248,5.918c0.002,0.185,0.017,0.382,0.126,0.531
					c0.132,0.18,0.369,0.245,0.588,0.287c1.943,0.374,4.036-0.115,5.613-1.31c-0.256-2.146-1.413-4.171-3.133-5.481"/>
				
					<path style="fill:#6D6D6D;stroke:#6D6D6D;stroke-width:1.7943;stroke-linecap:round;stroke-linejoin:round;stroke-miterlimit:10;" d="
					M299.281,1099.704c1.475,0.528,3.015,0.871,4.575,1.015"/>
				
					<path style="fill:#6D6D6D;stroke:#6D6D6D;stroke-width:1.7943;stroke-linecap:round;stroke-linejoin:round;stroke-miterlimit:10;" d="
					M299.17,1099.724c-0.331-1.815-1.494-3.351-2.623-4.81c-0.106-0.137-0.233-0.286-0.406-0.299
					c-0.112-0.008-0.219,0.044-0.318,0.098c-2.17,1.191-3.252,4.052-2.413,6.381c1.808-0.355,3.599-0.799,5.364-1.328
					L299.17,1099.724z"/>
			</g>
		</g>
	</g>	
</g>
</svg>
